<svg width="152" height="42" viewBox="0 0 152 42" fill="none" xmlns="http://www.w3.org/2000/svg">
<path d="M0 14C0 6.26801 6.26801 0 14 0H138C145.732 0 152 6.26801 152 14V28C152 35.732 145.732 42 138 42H14C6.26801 42 0 35.732 0 28V14Z" fill="white"/>
<g clip-path="url(#clip0_2_227)">
<path d="M20 10.5139C25.7915 10.5139 30.4861 15.2085 30.4861 21C30.4861 26.7915 25.7915 31.4861 20 31.4861C14.2085 31.4861 9.51389 26.7915 9.51389 21C9.51389 15.2085 14.2085 10.5139 20 10.5139Z" stroke="black" stroke-width="12.5833" stroke-linecap="round" stroke-linejoin="round"/>
<path d="M22.4223 16.8057L28.4413 27.2289" stroke="black" stroke-width="12.5833" stroke-linecap="round" stroke-linejoin="round"/>
<path d="M17.5777 16.8057H29.6158" stroke="black" stroke-width="12.5833" stroke-linecap="round" stroke-linejoin="round"/>
<path d="M15.1554 21.0001L21.1744 10.5769" stroke="black" stroke-width="12.5833" stroke-linecap="round" stroke-linejoin="round"/>
<path d="M17.5777 25.1944L11.5587 14.7712" stroke="black" stroke-width="12.5833" stroke-linecap="round" stroke-linejoin="round"/>
<path d="M22.4223 25.1946H10.3842" stroke="black" stroke-width="12.5833" stroke-linecap="round" stroke-linejoin="round"/>
<path d="M24.8446 21L18.8256 31.4232" stroke="black" stroke-width="12.5833" stroke-linecap="round" stroke-linejoin="round"/>
</g>
<path d="M42.688 19.416C42.688 18.328 42.9333 17.352 43.424 16.488C43.9147 15.6133 44.5813 14.9307 45.424 14.44C46.2773 13.9493 47.2213 13.704 48.256 13.704C49.472 13.704 50.5333 13.9973 51.44 14.584C52.3467 15.1707 53.008 16.0027 53.424 17.08H51.68C51.3707 16.408 50.9227 15.8907 50.336 15.528C49.76 15.1653 49.0667 14.984 48.256 14.984C47.4773 14.984 46.7787 15.1653 46.16 15.528C45.5413 15.8907 45.056 16.408 44.704 17.08C44.352 17.7413 44.176 18.52 44.176 19.416C44.176 20.3013 44.352 21.08 44.704 21.752C45.056 22.4133 45.5413 22.9253 46.16 23.288C46.7787 23.6507 47.4773 23.832 48.256 23.832C49.0667 23.832 49.76 23.656 50.336 23.304C50.9227 22.9413 51.3707 22.424 51.68 21.752H53.424C53.008 22.8187 52.3467 23.6453 51.44 24.232C50.5333 24.808 49.472 25.096 48.256 25.096C47.2213 25.096 46.2773 24.856 45.424 24.376C44.5813 23.8853 43.9147 23.208 43.424 22.344C42.9333 21.48 42.688 20.504 42.688 19.416ZM60.3434 16.072C61.0047 16.072 61.602 16.216 62.1354 16.504C62.6687 16.7813 63.0847 17.2027 63.3834 17.768C63.6927 18.3333 63.8474 19.0213 63.8474 19.832V25H62.4074V20.04C62.4074 19.1653 62.1887 18.4987 61.7514 18.04C61.314 17.5707 60.7167 17.336 59.9594 17.336C59.1914 17.336 58.578 17.576 58.1194 18.056C57.6714 18.536 57.4474 19.2347 57.4474 20.152V25H55.9914V13.16H57.4474V17.48C57.7354 17.032 58.13 16.6853 58.6314 16.44C59.1434 16.1947 59.714 16.072 60.3434 16.072ZM74.6257 20.28C74.6257 20.5573 74.6097 20.8507 74.5777 21.16H67.5697C67.6231 22.024 67.9164 22.7013 68.4497 23.192C68.9937 23.672 69.6497 23.912 70.4177 23.912C71.0471 23.912 71.5697 23.768 71.9857 23.48C72.4124 23.1813 72.7111 22.7867 72.8817 22.296H74.4497C74.2151 23.1387 73.7457 23.8267 73.0417 24.36C72.3377 24.8827 71.4631 25.144 70.4177 25.144C69.5857 25.144 68.8391 24.9573 68.1777 24.584C67.5271 24.2107 67.0151 23.6827 66.6417 23C66.2684 22.3067 66.0817 21.5067 66.0817 20.6C66.0817 19.6933 66.2631 18.8987 66.6257 18.216C66.9884 17.5333 67.4951 17.0107 68.1457 16.648C68.8071 16.2747 69.5644 16.088 70.4177 16.088C71.2497 16.088 71.9857 16.2693 72.6257 16.632C73.2657 16.9947 73.7564 17.496 74.0977 18.136C74.4497 18.7653 74.6257 19.48 74.6257 20.28ZM73.1217 19.976C73.1217 19.4213 72.9991 18.9467 72.7537 18.552C72.5084 18.1467 72.1724 17.8427 71.7457 17.64C71.3297 17.4267 70.8657 17.32 70.3537 17.32C69.6177 17.32 68.9884 17.5547 68.4657 18.024C67.9537 18.4933 67.6604 19.144 67.5857 19.976H73.1217ZM76.4036 20.6C76.4036 19.6933 76.585 18.904 76.9476 18.232C77.3103 17.5493 77.8116 17.0213 78.4516 16.648C79.1023 16.2747 79.8436 16.088 80.6756 16.088C81.753 16.088 82.6383 16.3493 83.3316 16.872C84.0356 17.3947 84.4996 18.12 84.7236 19.048H83.1556C83.0063 18.5147 82.713 18.0933 82.2756 17.784C81.849 17.4747 81.3156 17.32 80.6756 17.32C79.8436 17.32 79.1716 17.608 78.6596 18.184C78.1476 18.7493 77.8916 19.5547 77.8916 20.6C77.8916 21.656 78.1476 22.472 78.6596 23.048C79.1716 23.624 79.8436 23.912 80.6756 23.912C81.3156 23.912 81.849 23.7627 82.2756 23.464C82.7023 23.1653 82.9956 22.7387 83.1556 22.184H84.7236C84.489 23.08 84.0196 23.8 83.3156 24.344C82.6116 24.8773 81.7316 25.144 80.6756 25.144C79.8436 25.144 79.1023 24.9573 78.4516 24.584C77.8116 24.2107 77.3103 23.6827 76.9476 23C76.585 22.3173 76.4036 21.5173 76.4036 20.6ZM91.9624 25L88.5224 21.128V25H87.0664V13.16H88.5224V20.12L91.8984 16.232H93.9304L89.8024 20.6L93.9464 25H91.9624ZM101.118 14.808C100.841 14.808 100.606 14.712 100.414 14.52C100.222 14.328 100.126 14.0933 100.126 13.816C100.126 13.5387 100.222 13.304 100.414 13.112C100.606 12.92 100.841 12.824 101.118 12.824C101.385 12.824 101.609 12.92 101.79 13.112C101.982 13.304 102.078 13.5387 102.078 13.816C102.078 14.0933 101.982 14.328 101.79 14.52C101.609 14.712 101.385 14.808 101.118 14.808ZM101.822 16.232V25H100.366V16.232H101.822ZM106.48 17.432V22.6C106.48 23.0267 106.571 23.3307 106.752 23.512C106.933 23.6827 107.248 23.768 107.696 23.768H108.768V25H107.456C106.645 25 106.037 24.8133 105.632 24.44C105.227 24.0667 105.024 23.4533 105.024 22.6V17.432H103.888V16.232H105.024V14.024H106.48V16.232H108.768V17.432H106.48ZM119.422 25.144C118.6 25.144 117.854 24.9573 117.182 24.584C116.52 24.2107 115.998 23.6827 115.614 23C115.24 22.3067 115.054 21.5067 115.054 20.6C115.054 19.704 115.246 18.9147 115.63 18.232C116.024 17.5387 116.558 17.0107 117.23 16.648C117.902 16.2747 118.654 16.088 119.486 16.088C120.318 16.088 121.07 16.2747 121.742 16.648C122.414 17.0107 122.942 17.5333 123.326 18.216C123.72 18.8987 123.918 19.6933 123.918 20.6C123.918 21.5067 123.715 22.3067 123.31 23C122.915 23.6827 122.376 24.2107 121.694 24.584C121.011 24.9573 120.254 25.144 119.422 25.144ZM119.422 23.864C119.944 23.864 120.435 23.7413 120.894 23.496C121.352 23.2507 121.72 22.8827 121.998 22.392C122.286 21.9013 122.43 21.304 122.43 20.6C122.43 19.896 122.291 19.2987 122.014 18.808C121.736 18.3173 121.374 17.9547 120.926 17.72C120.478 17.4747 119.992 17.352 119.47 17.352C118.936 17.352 118.446 17.4747 117.998 17.72C117.56 17.9547 117.208 18.3173 116.942 18.808C116.675 19.2987 116.542 19.896 116.542 20.6C116.542 21.3147 116.67 21.9173 116.926 22.408C117.192 22.8987 117.544 23.2667 117.982 23.512C118.419 23.7467 118.899 23.864 119.422 23.864ZM134.008 16.232V25H132.552V23.704C132.275 24.152 131.885 24.504 131.384 24.76C130.893 25.0053 130.349 25.128 129.752 25.128C129.069 25.128 128.456 24.9893 127.912 24.712C127.368 24.424 126.936 23.9973 126.616 23.432C126.307 22.8667 126.152 22.1787 126.152 21.368V16.232H127.592V21.176C127.592 22.04 127.811 22.7067 128.248 23.176C128.685 23.6347 129.283 23.864 130.04 23.864C130.819 23.864 131.432 23.624 131.88 23.144C132.328 22.664 132.552 21.9653 132.552 21.048V16.232H134.008ZM138.642 17.432V22.6C138.642 23.0267 138.733 23.3307 138.914 23.512C139.096 23.6827 139.41 23.768 139.858 23.768H140.93V25H139.618C138.808 25 138.2 24.8133 137.794 24.44C137.389 24.0667 137.186 23.4533 137.186 22.6V17.432H136.05V16.232H137.186V14.024H138.642V16.232H140.93V17.432H138.642Z" fill="black"/>
<defs>
<clipPath id="clip0_2_227">
<rect width="32" height="32" fill="white" transform="translate(4 5)"/>
</clipPath>
</defs>
</svg>
